<mxfile host="app.diagrams.net" modified="2024-03-18T18:21:59.005Z" agent="Mozilla/5.0 (Windows NT 10.0; Win64; x64) AppleWebKit/537.36 (KHTML, like Gecko) Chrome/122.0.0.0 Safari/537.36 Edg/122.0.0.0" version="23.1.6" etag="H840OtOYkhbJFbe4I0Ur" type="github">
  <diagram name="Page-1" id="cpIzp63nFiMN87A-B6S4">
    <mxGraphModel>
      <root>
        <mxCell id="0" />
        <mxCell id="1" parent="0" />
      </root>
    </mxGraphModel>
  </diagram>
</mxfile>
